<svg xmlns="http://www.w3.org/2000/svg" xmlns:xlink="http://www.w3.org/1999/xlink" width="500" zoomAndPan="magnify" viewBox="0 0 375 374.999991" height="500" preserveAspectRatio="xMidYMid meet" version="1.0"><defs><g/><clipPath id="f1bbf600ef"><path d="M 17.25 0 L 357.75 0 C 362.324219 0 366.710938 1.816406 369.949219 5.050781 C 373.183594 8.289062 375 12.675781 375 17.25 L 375 357.75 C 375 362.324219 373.183594 366.710938 369.949219 369.949219 C 366.710938 373.183594 362.324219 375 357.75 375 L 17.25 375 C 12.675781 375 8.289062 373.183594 5.050781 369.949219 C 1.816406 366.710938 0 362.324219 0 357.75 L 0 17.25 C 0 12.675781 1.816406 8.289062 5.050781 5.050781 C 8.289062 1.816406 12.675781 0 17.25 0 Z M 17.25 0 " clip-rule="nonzero"/></clipPath><clipPath id="32d1275635"><path d="M 0 0 L 375 0 L 375 375 L 0 375 Z M 0 0 " clip-rule="nonzero"/></clipPath><clipPath id="92c9692b93"><path d="M 17.25 0 L 357.75 0 C 362.324219 0 366.710938 1.816406 369.949219 5.050781 C 373.183594 8.289062 375 12.675781 375 17.25 L 375 357.75 C 375 362.324219 373.183594 366.710938 369.949219 369.949219 C 366.710938 373.183594 362.324219 375 357.75 375 L 17.25 375 C 12.675781 375 8.289062 373.183594 5.050781 369.949219 C 1.816406 366.710938 0 362.324219 0 357.75 L 0 17.25 C 0 12.675781 1.816406 8.289062 5.050781 5.050781 C 8.289062 1.816406 12.675781 0 17.25 0 Z M 17.25 0 " clip-rule="nonzero"/></clipPath><clipPath id="deeef8f571"><rect x="0" width="375" y="0" height="375"/></clipPath></defs><g clip-path="url(#f1bbf600ef)"><g transform="matrix(1, 0, 0, 1, 0, 0)"><g clip-path="url(#deeef8f571)"><g clip-path="url(#32d1275635)"><g clip-path="url(#92c9692b93)"><rect x="-82.5" width="540" fill="#6e54ff" height="539.999987" y="-82.499998" fill-opacity="1"/></g></g></g></g></g><path fill="#ffffff" d="M 14.953125 225.75 L 360.023438 225.75 L 360.023438 234.75 L 14.953125 234.75 Z M 14.953125 225.75 " fill-opacity="1" fill-rule="nonzero"/><g fill="#ffffff" fill-opacity="1"><g transform="translate(14.953944, 220.499986)"><g><path d="M 5.890625 0 L 5.890625 -68.0625 L 27.125 -68.0625 L 38.1875 -36.71875 C 38.644531 -35.257812 39.175781 -33.394531 39.78125 -31.125 C 40.394531 -28.851562 41.015625 -26.421875 41.640625 -23.828125 C 42.265625 -21.242188 42.84375 -18.742188 43.375 -16.328125 C 43.90625 -13.910156 44.351562 -11.816406 44.71875 -10.046875 L 41.796875 -10.046875 C 42.160156 -11.785156 42.609375 -13.859375 43.140625 -16.265625 C 43.671875 -18.671875 44.25 -21.175781 44.875 -23.78125 C 45.5 -26.382812 46.109375 -28.828125 46.703125 -31.109375 C 47.296875 -33.390625 47.835938 -35.257812 48.328125 -36.71875 L 59.203125 -68.0625 L 80.484375 -68.0625 L 80.484375 0 L 66.5 0 L 66.5 -32.15625 C 66.5 -33.644531 66.519531 -35.484375 66.5625 -37.671875 C 66.613281 -39.867188 66.675781 -42.234375 66.75 -44.765625 C 66.832031 -47.296875 66.898438 -49.847656 66.953125 -52.421875 C 67.015625 -54.992188 67.0625 -57.421875 67.09375 -59.703125 L 68.15625 -59.703125 C 67.539062 -57.203125 66.875 -54.625 66.15625 -51.96875 C 65.445312 -49.320312 64.734375 -46.742188 64.015625 -44.234375 C 63.296875 -41.722656 62.625 -39.425781 62 -37.34375 C 61.382812 -35.257812 60.847656 -33.53125 60.390625 -32.15625 L 49.0625 0 L 37.359375 0 L 25.90625 -32.15625 C 25.414062 -33.53125 24.859375 -35.25 24.234375 -37.3125 C 23.609375 -39.382812 22.929688 -41.671875 22.203125 -44.171875 C 21.472656 -46.671875 20.738281 -49.242188 20 -51.890625 C 19.269531 -54.535156 18.570312 -57.140625 17.90625 -59.703125 L 19.1875 -59.703125 C 19.21875 -57.503906 19.257812 -55.125 19.3125 -52.5625 C 19.375 -50.007812 19.4375 -47.453125 19.5 -44.890625 C 19.5625 -42.335938 19.625 -39.957031 19.6875 -37.75 C 19.75 -35.539062 19.78125 -33.675781 19.78125 -32.15625 L 19.78125 0 Z M 5.890625 0 "/></g></g></g><g fill="#ffffff" fill-opacity="1"><g transform="translate(101.322282, 220.499986)"><g><path d="M 35.8125 0.953125 C 29.78125 0.953125 24.359375 -0.429688 19.546875 -3.203125 C 14.734375 -5.972656 10.929688 -9.957031 8.140625 -15.15625 C 5.359375 -20.363281 3.96875 -26.640625 3.96875 -33.984375 C 3.96875 -41.347656 5.359375 -47.640625 8.140625 -52.859375 C 10.929688 -58.085938 14.734375 -62.085938 19.546875 -64.859375 C 24.359375 -67.628906 29.78125 -69.015625 35.8125 -69.015625 C 41.84375 -69.015625 47.253906 -67.628906 52.046875 -64.859375 C 56.847656 -62.085938 60.640625 -58.085938 63.421875 -52.859375 C 66.210938 -47.640625 67.609375 -41.347656 67.609375 -33.984375 C 67.609375 -26.640625 66.210938 -20.359375 63.421875 -15.140625 C 60.640625 -9.921875 56.847656 -5.929688 52.046875 -3.171875 C 47.253906 -0.421875 41.84375 0.953125 35.8125 0.953125 Z M 35.8125 -11.421875 C 39.34375 -11.421875 42.429688 -12.285156 45.078125 -14.015625 C 47.734375 -15.753906 49.796875 -18.304688 51.265625 -21.671875 C 52.742188 -25.035156 53.484375 -29.140625 53.484375 -33.984375 C 53.484375 -38.859375 52.742188 -42.984375 51.265625 -46.359375 C 49.796875 -49.742188 47.734375 -52.300781 45.078125 -54.03125 C 42.429688 -55.769531 39.34375 -56.640625 35.8125 -56.640625 C 32.3125 -56.640625 29.226562 -55.765625 26.5625 -54.015625 C 23.894531 -52.265625 21.820312 -49.707031 20.34375 -46.34375 C 18.875 -42.976562 18.140625 -38.859375 18.140625 -33.984375 C 18.140625 -29.140625 18.875 -25.039062 20.34375 -21.6875 C 21.820312 -18.34375 23.894531 -15.796875 26.5625 -14.046875 C 29.226562 -12.296875 32.3125 -11.421875 35.8125 -11.421875 Z M 35.8125 -11.421875 "/></g></g></g><g fill="#ffffff" fill-opacity="1"><g transform="translate(172.892448, 220.499986)"><g><path d="M 5.890625 0 L 5.890625 -68.0625 L 21.28125 -68.0625 L 42.890625 -33.53125 C 43.867188 -31.914062 44.910156 -30.109375 46.015625 -28.109375 C 47.128906 -26.117188 48.269531 -23.90625 49.4375 -21.46875 C 50.613281 -19.03125 51.78125 -16.378906 52.9375 -13.515625 L 51.4375 -12.703125 C 51.25 -15.140625 51.078125 -17.765625 50.921875 -20.578125 C 50.773438 -23.390625 50.65625 -26.085938 50.5625 -28.671875 C 50.46875 -31.265625 50.421875 -33.429688 50.421875 -35.171875 L 50.421875 -68.0625 L 64.640625 -68.0625 L 64.640625 0 L 49.1875 0 L 29.59375 -31.28125 C 28.289062 -33.414062 27.019531 -35.570312 25.78125 -37.75 C 24.550781 -39.925781 23.257812 -42.351562 21.90625 -45.03125 C 20.550781 -47.71875 18.972656 -50.84375 17.171875 -54.40625 L 19.09375 -54.765625 C 19.269531 -51.441406 19.441406 -48.28125 19.609375 -45.28125 C 19.785156 -42.289062 19.914062 -39.59375 20 -37.1875 C 20.09375 -34.78125 20.140625 -32.828125 20.140625 -31.328125 L 20.140625 0 Z M 5.890625 0 "/></g></g></g><g fill="#ffffff" fill-opacity="1"><g transform="translate(243.412127, 220.499986)"><g><path d="M 5.890625 0 L 5.890625 -68.0625 L 51.25 -68.0625 L 51.25 -56.359375 L 19.875 -56.359375 L 19.875 -37.859375 L 48.421875 -37.859375 L 48.421875 -26.453125 L 19.875 -26.453125 L 19.875 0 Z M 5.890625 0 "/></g></g></g><g fill="#ffffff" fill-opacity="1"><g transform="translate(298.220169, 220.499986)"><g><path d="M 3.109375 -56.359375 L 3.109375 -68.0625 L 58.65625 -68.0625 L 58.65625 -56.359375 L 37.90625 -56.359375 L 37.90625 0 L 23.9375 0 L 23.9375 -56.359375 Z M 3.109375 -56.359375 "/></g></g></g></svg>