<svg xmlns="http://www.w3.org/2000/svg" xmlns:xlink="http://www.w3.org/1999/xlink" width="470" zoomAndPan="magnify" viewBox="0 0 352.5 97.5" height="130" preserveAspectRatio="xMidYMid meet" version="1.0"><defs><g/><clipPath id="8bd1a8b2ee"><path d="M 4 0 L 348 0 L 348 97.003906 L 4 97.003906 Z M 4 0 " clip-rule="nonzero"/></clipPath><clipPath id="2f1e2c53d7"><path d="M 0.710938 80 L 343.832031 80 L 343.832031 90 L 0.710938 90 Z M 0.710938 80 " clip-rule="nonzero"/></clipPath><clipPath id="be9a89a5ec"><rect x="0" width="344" y="0" height="98"/></clipPath></defs><g clip-path="url(#8bd1a8b2ee)"><g transform="matrix(1, 0, 0, 1, 4, 0.000000000000016238)"><g clip-path="url(#be9a89a5ec)"><g clip-path="url(#2f1e2c53d7)"><path fill="#6e54ff" d="M 0.847656 80.246094 L 343.132812 80.246094 L 343.132812 89.171875 L 0.847656 89.171875 Z M 0.847656 80.246094 " fill-opacity="1" fill-rule="nonzero"/></g><g fill="#6e54ff" fill-opacity="1"><g transform="translate(0.846897, 75.038433)"><g><path d="M 5.84375 0 L 5.84375 -67.515625 L 26.921875 -67.515625 L 37.875 -36.4375 C 38.332031 -34.976562 38.863281 -33.125 39.46875 -30.875 C 40.070312 -28.625 40.679688 -26.210938 41.296875 -23.640625 C 41.921875 -21.078125 42.492188 -18.59375 43.015625 -16.1875 C 43.546875 -13.789062 43.992188 -11.71875 44.359375 -9.96875 L 41.453125 -9.96875 C 41.816406 -11.6875 42.265625 -13.738281 42.796875 -16.125 C 43.328125 -18.507812 43.898438 -20.992188 44.515625 -23.578125 C 45.140625 -26.160156 45.742188 -28.582031 46.328125 -30.84375 C 46.921875 -33.113281 47.457031 -34.976562 47.9375 -36.4375 L 58.71875 -67.515625 L 79.84375 -67.515625 L 79.84375 0 L 65.96875 0 L 65.96875 -31.90625 C 65.96875 -33.382812 65.988281 -35.207031 66.03125 -37.375 C 66.082031 -39.550781 66.144531 -41.894531 66.21875 -44.40625 C 66.289062 -46.914062 66.359375 -49.445312 66.421875 -52 C 66.484375 -54.550781 66.53125 -56.957031 66.5625 -59.21875 L 67.609375 -59.21875 C 67.003906 -56.738281 66.34375 -54.1875 65.625 -51.5625 C 64.914062 -48.9375 64.207031 -46.375 63.5 -43.875 C 62.789062 -41.382812 62.125 -39.101562 61.5 -37.03125 C 60.882812 -34.96875 60.351562 -33.257812 59.90625 -31.90625 L 48.65625 0 L 37.0625 0 L 25.6875 -31.90625 C 25.207031 -33.257812 24.65625 -34.960938 24.03125 -37.015625 C 23.414062 -39.066406 22.742188 -41.332031 22.015625 -43.8125 C 21.296875 -46.289062 20.570312 -48.84375 19.84375 -51.46875 C 19.125 -54.101562 18.429688 -56.6875 17.765625 -59.21875 L 19.03125 -59.21875 C 19.0625 -57.039062 19.101562 -54.679688 19.15625 -52.140625 C 19.21875 -49.609375 19.28125 -47.070312 19.34375 -44.53125 C 19.40625 -42 19.46875 -39.640625 19.53125 -37.453125 C 19.59375 -35.265625 19.625 -33.414062 19.625 -31.90625 L 19.625 0 Z M 5.84375 0 "/></g></g></g><g fill="#6e54ff" fill-opacity="1"><g transform="translate(86.518624, 75.038433)"><g><path d="M 35.53125 0.953125 C 29.539062 0.953125 24.160156 -0.421875 19.390625 -3.171875 C 14.617188 -5.921875 10.847656 -9.878906 8.078125 -15.046875 C 5.316406 -20.210938 3.9375 -26.4375 3.9375 -33.71875 C 3.9375 -41.019531 5.316406 -47.257812 8.078125 -52.4375 C 10.847656 -57.625 14.617188 -61.59375 19.390625 -64.34375 C 24.160156 -67.09375 29.539062 -68.46875 35.53125 -68.46875 C 41.507812 -68.46875 46.875 -67.09375 51.625 -64.34375 C 56.382812 -61.59375 60.144531 -57.625 62.90625 -52.4375 C 65.675781 -47.257812 67.0625 -41.019531 67.0625 -33.71875 C 67.0625 -26.4375 65.675781 -20.203125 62.90625 -15.015625 C 60.144531 -9.835938 56.382812 -5.878906 51.625 -3.140625 C 46.875 -0.410156 41.507812 0.953125 35.53125 0.953125 Z M 35.53125 -11.328125 C 39.03125 -11.328125 42.09375 -12.1875 44.71875 -13.90625 C 47.34375 -15.632812 49.390625 -18.164062 50.859375 -21.5 C 52.328125 -24.832031 53.0625 -28.90625 53.0625 -33.71875 C 53.0625 -38.550781 52.328125 -42.640625 50.859375 -45.984375 C 49.390625 -49.335938 47.34375 -51.875 44.71875 -53.59375 C 42.09375 -55.320312 39.03125 -56.1875 35.53125 -56.1875 C 32.050781 -56.1875 28.988281 -55.316406 26.34375 -53.578125 C 23.707031 -51.835938 21.65625 -49.300781 20.1875 -45.96875 C 18.71875 -42.632812 17.984375 -38.550781 17.984375 -33.71875 C 17.984375 -28.90625 18.71875 -24.835938 20.1875 -21.515625 C 21.65625 -18.191406 23.707031 -15.660156 26.34375 -13.921875 C 28.988281 -12.191406 32.050781 -11.328125 35.53125 -11.328125 Z M 35.53125 -11.328125 "/></g></g></g><g fill="#6e54ff" fill-opacity="1"><g transform="translate(157.511537, 75.038433)"><g><path d="M 5.84375 0 L 5.84375 -67.515625 L 21.109375 -67.515625 L 42.546875 -33.265625 C 43.515625 -31.660156 44.546875 -29.867188 45.640625 -27.890625 C 46.742188 -25.910156 47.878906 -23.710938 49.046875 -21.296875 C 50.210938 -18.878906 51.367188 -16.25 52.515625 -13.40625 L 51.015625 -12.59375 C 50.835938 -15.007812 50.671875 -17.613281 50.515625 -20.40625 C 50.367188 -23.207031 50.25 -25.890625 50.15625 -28.453125 C 50.0625 -31.023438 50.015625 -33.171875 50.015625 -34.890625 L 50.015625 -67.515625 L 64.109375 -67.515625 L 64.109375 0 L 48.796875 0 L 29.359375 -31.03125 C 28.054688 -33.144531 26.796875 -35.28125 25.578125 -37.4375 C 24.359375 -39.601562 23.070312 -42.015625 21.71875 -44.671875 C 20.375 -47.328125 18.8125 -50.425781 17.03125 -53.96875 L 18.9375 -54.328125 C 19.125 -51.035156 19.296875 -47.898438 19.453125 -44.921875 C 19.617188 -41.953125 19.75 -39.269531 19.84375 -36.875 C 19.9375 -34.488281 19.984375 -32.554688 19.984375 -31.078125 L 19.984375 0 Z M 5.84375 0 "/></g></g></g><g fill="#6e54ff" fill-opacity="1"><g transform="translate(227.462434, 75.038433)"><g><path d="M 5.84375 0 L 5.84375 -67.515625 L 50.84375 -67.515625 L 50.84375 -55.90625 L 19.703125 -55.90625 L 19.703125 -37.5625 L 48.03125 -37.5625 L 48.03125 -26.234375 L 19.703125 -26.234375 L 19.703125 0 Z M 5.84375 0 "/></g></g></g><g fill="#6e54ff" fill-opacity="1"><g transform="translate(281.828417, 75.038433)"><g><path d="M 3.078125 -55.90625 L 3.078125 -67.515625 L 58.171875 -67.515625 L 58.171875 -55.90625 L 37.609375 -55.90625 L 37.609375 0 L 23.75 0 L 23.75 -55.90625 Z M 3.078125 -55.90625 "/></g></g></g></g></g></g></svg>